<svg width="24" height="31" viewBox="0 0 24 31" fill="none" xmlns="http://www.w3.org/2000/svg">
<g clip-path="url(#clip0_155_2620)">
<path d="M12 0C5.38226 0 0 5.36368 0 11.9563C0 14.4038 0.738782 16.7597 2.12035 18.7416C2.18922 18.8604 2.25913 18.9749 2.34156 19.0864L11.1005 30.5907C11.3384 30.8542 11.6577 31 12 31C12.3381 31 12.6595 30.8532 12.9381 30.5417L21.6563 19.0853C21.7419 18.9708 21.816 18.8458 21.8556 18.7729C23.2546 16.7743 24.0032 14.3943 24 11.9563C24 5.36368 18.6167 0 12 0ZM12 16.2316C10.8645 16.2311 9.77566 15.7812 8.97209 14.9805C8.16853 14.1798 7.71587 13.0938 7.71339 11.9605C7.74357 10.8459 8.20838 9.78713 9.00888 9.00945C9.80939 8.23177 10.8824 7.79663 11.9995 7.79663C13.1166 7.79663 14.1896 8.23177 14.9901 9.00945C15.7906 9.78713 16.2554 10.8459 16.2856 11.9605C16.2828 13.0934 15.8302 14.179 15.0269 14.9795C14.2235 15.7799 13.1351 16.2298 12 16.2306V16.2316Z" fill="#00DFD8"/>
</g>
<defs>
<clipPath id="clip0_155_2620">
<rect width="24" height="31" fill="white"/>
</clipPath>
</defs>
</svg>
